<?xml version="1.0" encoding="utf-8"?>
<!-- Generator: Adobe Illustrator 25.2.3, SVG Export Plug-In . SVG Version: 6.00 Build 0)  -->
<svg version="1.1" id="Lager_1_xA0_Bild_1_" xmlns="http://www.w3.org/2000/svg" xmlns:xlink="http://www.w3.org/1999/xlink"
	 x="0px" y="0px" viewBox="0 0 118.91 114.14" style="enable-background:new 0 0 118.91 114.14;" xml:space="preserve">
<style type="text/css">
	.st0{fill:#1D294B;}
	.st1{fill:#FFFFFF;}
	.st2{fill:none;}
</style>
<g>
	<polygon class="st0" points="58.84,3.44 45.02,44.51 2.14,44.49 36.96,70.82 23.96,110.69 59.68,86.07 94.27,110.13 81.14,70.32 
		116.77,44.32 72.98,44.49 	"/>
	<polygon class="st1" points="58.84,13.32 47.14,47.32 11.39,47.49 40.23,69.49 30.14,102.32 59.64,82.65 88.73,102.32 77.98,69.24 
		107.73,47.15 70.73,47.15 	"/>
	<polygon class="st2" points="59.09,22.32 49.49,50.21 20.17,50.35 43.82,68.39 34.56,96.32 59.75,79.19 83.6,95.32 74.79,68.18 
		99.19,50.07 68.84,50.07 	"/>
	<polygon class="st2" points="58.97,22.57 49.38,50.46 20.05,50.6 43.7,68.64 34.44,96.57 59.63,79.44 83.48,95.57 74.67,68.43 
		99.07,50.32 68.72,50.32 	"/>
	<polygon class="st2" points="59.09,22.32 49.49,50.21 20.17,50.35 43.82,68.39 34.56,96.32 59.75,79.19 83.6,95.32 74.79,68.18 
		99.19,50.07 68.84,50.07 	"/>
	<polygon class="st2" points="58.97,21.83 49.38,49.71 20.05,49.85 43.7,67.89 34.44,95.83 59.63,78.69 83.48,94.83 74.67,67.69 
		99.07,49.58 68.72,49.58 	"/>
	<polygon class="st0" points="58.97,21.83 48.98,50.46 20.17,50.35 43.82,68.39 34.44,96.57 59.63,78.69 83.81,96.32 74.67,67.69 
		100.56,49.68 68.84,50.07 	"/>
</g>
</svg>
